<?xml version="1.0" encoding="UTF-8"?>
<svg xmlns="http://www.w3.org/2000/svg" viewBox="0 0 433.19 162.62">
  <defs>
    <style>
      .font-bold {
        font-family: Helvetica;
        font-variation-settings: 'wght' 600;
        font-weight: 700;
        fill: #dcddde;
        font-size: 19px;
        display: block;
      }

      .font {
        font-family: Helvetica;
        fill: #b6b7b9;
        font-size: 19px;
      }

      .cls-4 {
        fill: #36393f;
        stroke: #18191b;
        stroke-miterlimit: 10;
        stroke-width: 3px;
      }

      .cls-5 {
        fill: #fff;
      }

      .cls-5, .cls-6 {
        fill-rule: evenodd;
      }

      .cls-6 {
        fill: url(#linear-gradient);
      }
    </style>
    <linearGradient id="linear-gradient" x1="418.14" y1="169.24" x2="418.14" y2="139.14" gradientTransform="translate(0 169.24) scale(1 -1)" gradientUnits="userSpaceOnUse">
      <stop offset="0" stop-color="#36393f"/>
      <stop offset="1" stop-color="#212326"/>
    </linearGradient>
  </defs>
  <g id="Layer_1">
    <rect class="cls-4" x="1" y="6.62" width="423.33" height="155" rx="6" ry="6"/>
    <g id="text">
      <text y="32">
        <tspan dy="28" x="34%" class="font-bold">${APPLICATION_NAME}</tspan>
        <tspan dy="28" x="34%" class="font">${DETAILS}</tspan>
        <tspan dy="28" x="34%" class="font">${STATE}</tspan>
<!--        <tspan dy="28" x="34%" class="font">${STATE}</tspan>-->
      </text>
    </g>
  </g>
  <g id="g11">
    <path id="path7" class="cls-6" d="M403.09,15.05c0-8.31,6.74-15.05,15.05-15.05s15.05,6.74,15.05,15.05-6.74,15.05-15.05,15.05-15.05-6.74-15.05-15.05Z"/>
    <path id="path9" class="cls-5" d="M424.65,8.93c-1.21-.55-2.51-.95-3.87-1.18-.17,.29-.36,.68-.5,1-1.44-.21-2.87-.21-4.29,0-.13-.31-.33-.7-.5-1-1.36,.23-2.66,.63-3.87,1.18-2.45,3.59-3.11,7.08-2.78,10.53,1.62,1.18,3.2,1.89,4.75,2.36,.38-.51,.72-1.05,1.02-1.62-.56-.21-1.09-.46-1.6-.75,.13-.1,.27-.2,.39-.3,3.09,1.4,6.44,1.4,9.49,0,.13,.1,.26,.2,.39,.3-.51,.3-1.04,.55-1.6,.76,.29,.57,.63,1.11,1.02,1.62,1.55-.47,3.12-1.18,4.75-2.36,.39-4-.67-7.46-2.79-10.54Zm-9.62,8.42c-.93,0-1.69-.84-1.69-1.86s.74-1.86,1.69-1.86,1.7,.84,1.69,1.86c0,1.02-.74,1.86-1.69,1.86Zm6.23,0c-.93,0-1.69-.84-1.69-1.86s.74-1.86,1.69-1.86,1.7,.84,1.69,1.86c0,1.02-.74,1.86-1.69,1.86Z"/>
  </g>
<!--  <image href="${LARGE_IMAGE_URL}" height="118" width="118" x="15.33" y="25.12"/>-->
  <image href="https://pngimg.com/uploads/square/square_PNG16.png" height="118" width="118" x="15.33" y="25.12"/>
</svg>